<svg width="51" height="84" viewBox="0 0 51 84" fill="none" xmlns="http://www.w3.org/2000/svg">
<g clip-path="url(#clip0_1_8)">
<path d="M25.4799 6.7813C32.7066 15.9557 36.5644 27.2693 36.4245 38.8784V41.6496L38.8088 43.1004C41.8895 44.9653 44.1871 47.8579 45.2828 51.251C44.3208 50.5426 43.3143 49.8947 42.2693 49.3111L35.9112 45.7412L34.7687 52.9463C34.6698 53.583 34.5371 54.2141 34.3713 54.8372H16.5553C16.2904 54.0222 16.0751 53.2071 15.8764 52.3594L14.4359 45.839L8.57449 49.0992C7.59525 49.6468 6.64981 50.251 5.74312 50.9086C6.86023 47.5548 9.10984 44.6785 12.1178 42.758L14.3862 41.3072V38.7316C14.4272 27.1696 18.3313 15.9421 25.4964 6.7813H25.4799ZM25.4964 0C25.1248 0.00090241 24.7661 0.134066 24.4864 0.374928L24.3374 0.505337C14.7895 11.0184 9.4877 24.6128 9.43548 38.7153C5.38382 41.3033 2.38471 45.2107 0.962235 49.7547C-0.460237 54.2986 -0.215607 59.1902 1.65338 63.5747C3.62225 59.2937 6.91356 55.7339 11.0581 53.4027C11.4738 55.1753 12.0274 56.9138 12.7139 58.6028C12.801 58.9275 12.994 59.215 13.2632 59.4212C13.5324 59.6273 13.863 59.7407 14.2041 59.7439H37.1861C37.6498 59.7439 38.1134 59.3038 38.3452 58.6191C39.0153 57.0133 39.4824 55.3326 39.736 53.6146C43.8885 55.9361 47.1825 59.4988 49.1408 63.7866C51.1225 59.4238 51.4294 54.5013 50.0043 49.9326C48.5793 45.364 45.5191 41.4594 41.3918 38.9436C41.5555 24.7578 36.2818 11.0326 26.6223 0.505337C26.4785 0.347004 26.3025 0.220199 26.1057 0.133144C25.9088 0.0460895 25.6956 0.000727716 25.4799 0L25.4964 0Z" fill="#4EA8DE"/>
<path d="M25.4823 37.3623C24.2105 37.3623 22.9672 36.9916 21.9091 36.297C20.851 35.6023 20.0254 34.6148 19.5365 33.459C19.0476 32.3031 18.9172 31.0307 19.1617 29.8019C19.4062 28.5732 20.0147 27.4433 20.9106 26.5545C21.8064 25.6658 22.9494 25.058 24.1955 24.8079C25.4417 24.5577 26.7351 24.6763 27.9129 25.1488C29.0906 25.6212 30.1 26.4264 30.8136 27.4627C31.5273 28.4991 31.9134 29.7202 31.9232 30.9723V30.9723C31.943 31.7837 31.8002 32.5909 31.503 33.348C31.2058 34.105 30.76 34.797 30.1911 35.3844C29.6222 35.9717 28.9413 36.443 28.1873 36.7712C27.4333 37.0994 26.621 37.2781 25.7969 37.2971C25.6927 37.3136 25.5865 37.3136 25.4823 37.2971V37.3623Z" fill="#4EA8DE"/>
<path d="M34.44 63.8028C34.0257 63.7898 33.6129 63.8583 33.2259 64.0045C32.8389 64.1506 32.4854 64.3713 32.1862 64.6537C31.887 64.9362 31.6481 65.2746 31.4835 65.6491C31.3189 66.0237 31.232 66.4268 31.2278 66.8349V76.4526C31.2278 77.2913 31.5662 78.0957 32.1686 78.6887C32.771 79.2818 33.588 79.615 34.44 79.615C35.2919 79.615 36.1089 79.2818 36.7113 78.6887C37.3137 78.0957 37.6522 77.2913 37.6522 76.4526V66.9653C37.6654 66.5587 37.5963 66.1537 37.4489 65.7737C37.3015 65.3938 37.0788 65.0465 36.7937 64.7521C36.5086 64.4578 36.1668 64.2223 35.7883 64.0593C35.4098 63.8963 35.0021 63.8091 34.589 63.8028H34.44Z" fill="#5E60CE"/>
<path d="M16.5577 63.8029C16.1364 63.7809 15.7148 63.8427 15.3182 63.9844C14.9216 64.1261 14.558 64.3449 14.2491 64.6278C13.9401 64.9107 13.6921 65.2518 13.5198 65.631C13.3475 66.0102 13.2544 66.4196 13.2462 66.8349V76.4526C13.2462 77.2913 13.5846 78.0957 14.187 78.6888C14.7894 79.2818 15.6064 79.615 16.4583 79.615C17.3103 79.615 18.1273 79.2818 18.7297 78.6888C19.3321 78.0957 19.6705 77.2913 19.6705 76.4526V66.9653C19.6838 66.5588 19.6147 66.1537 19.4673 65.7738C19.3199 65.3938 19.0971 65.0465 18.812 64.7522C18.5269 64.4578 18.1852 64.2223 17.8066 64.0593C17.4281 63.8963 17.0204 63.8092 16.6074 63.8029H16.5577Z" fill="#5E60CE"/>
<path d="M25.2505 63.8029C24.8373 63.7942 24.4265 63.8658 24.0414 64.0135C23.6564 64.1612 23.3046 64.3821 23.0063 64.6637C22.708 64.9453 22.469 65.2819 22.3029 65.6545C22.1368 66.027 22.0469 66.4281 22.0383 66.8349V80.0878C22.0383 80.9265 22.3767 81.7309 22.9791 82.3239C23.5815 82.917 24.3985 83.2502 25.2505 83.2502C26.1024 83.2502 26.9194 82.917 27.5218 82.3239C28.1242 81.7309 28.4626 80.9265 28.4626 80.0878V67.0468C28.4759 66.6403 28.4068 66.2352 28.2594 65.8553C28.112 65.4753 27.8893 65.128 27.6041 64.8337C27.319 64.5393 26.9773 64.3038 26.5988 64.1408C26.2202 63.9778 25.8126 63.8906 25.3995 63.8844L25.2505 63.8029Z" fill="#5E60CE"/>
</g>
<defs>
<clipPath id="clip0_1_8">
<rect width="50.8652" height="83.2339" fill="white"/>
</clipPath>
</defs>
</svg>
